<?xml version="1.0" encoding="iso-8859-1"?>
<!-- Generator: Adobe Illustrator 18.1.1, SVG Export Plug-In . SVG Version: 6.00 Build 0)  -->
<svg xmlns="http://www.w3.org/2000/svg" xmlns:xlink="http://www.w3.org/1999/xlink" version="1.1" id="Capa_1" x="0px" y="0px" viewBox="0 0 32 32" style="enable-background:new 0 0 32 32;" xml:space="preserve" width="512px" height="512px">
<g>
	<g id="dial">
		<g>
			<circle cx="16" cy="15.914" r="4" fill="#FFDA44"/>
			<path d="M28.555,6.133c-0.344,0.281-0.762,0.469-1.242,0.469c-1.102,0-2-0.891-2-2     c0-0.484,0.195-0.914,0.484-1.266c-2.219-1.711-4.906-2.863-7.836-3.227C17.859,1.117,17.039,1.914,16,1.914     s-1.871-0.805-1.961-1.828c-2.969,0.383-5.672,1.555-7.91,3.328C6.383,3.75,6.563,4.148,6.563,4.602c0,1.109-0.891,2-2,2     c-0.445,0-0.844-0.172-1.176-0.422C1.297,8.883,0,12.234,0,15.914c0,8.836,7.164,16,16,16s16-7.164,16-16     C32,12.199,30.688,8.832,28.555,6.133z M16,23.914c-4.418,0-8-3.582-8-8c0-2.211,0.895-4.207,2.344-5.656L16,4.602l5.648,5.648     C23.102,11.699,24,13.703,24,15.914C24,20.336,20.418,23.914,16,23.914z" fill="#FFDA44"/>
		</g>
	</g>
</g>
<g>
</g>
<g>
</g>
<g>
</g>
<g>
</g>
<g>
</g>
<g>
</g>
<g>
</g>
<g>
</g>
<g>
</g>
<g>
</g>
<g>
</g>
<g>
</g>
<g>
</g>
<g>
</g>
<g>
</g>
</svg>
