<?xml version="1.0" ?><svg style="enable-background:new 0 0 256 256;" version="1.1" viewBox="0 0 256 256" xml:space="preserve" xmlns="http://www.w3.org/2000/svg" xmlns:xlink="http://www.w3.org/1999/xlink"><style type="text/css">
	.st0{fill:#00A388;}
	.st1{fill:#EA685E;stroke:#00886F;stroke-width:15;stroke-miterlimit:10;}
	.st2{fill:#E8E8E8;}
	.st3{fill:#FFFFFF;stroke:#00886F;stroke-width:15;stroke-miterlimit:10;}
	.st4{fill:#00886F;}
	.st5{fill:#FFFFFF;}
	.st6{fill:#CCCCCC;}
	.st7{fill:none;stroke:#00A388;stroke-width:4;stroke-miterlimit:10;}
	.st8{fill:#EA685E;}
	.st9{fill:#FFAB80;}
	.st10{fill:#2C3E50;}
	.st11{fill:#4B687F;}
	.st12{fill:none;stroke:#3E5063;stroke-width:4;stroke-miterlimit:10;}
	.st13{fill:#FFD766;}
	.st14{fill:#FFE6D3;}
	.st15{fill:#F09A79;}
	.st16{fill:#C91E01;}
	.st17{fill:#EA3B28;}
	.st18{fill:#0F627F;}
	.st19{fill:#005670;}
	.st20{filter:url(#Adobe_OpacityMaskFilter);}
	.st21{mask:url(#SVGID_2_);}
	.st22{fill:#8C623B;}
	.st23{fill:#E6E6E6;stroke:#005670;stroke-width:16;stroke-miterlimit:10;}
	.st24{opacity:0.6;}
	.st25{fill:#E6E6E6;}
	.st26{fill:#FFEC82;}
	.st27{fill:#FFCF3A;}
	.st28{filter:url(#Adobe_OpacityMaskFilter_1_);}
	.st29{mask:url(#SVGID_1_);}
	.st30{fill:#603813;}
	.st31{fill:#F2F2F2;}
	.st32{fill:#666666;}
</style><g id="Layer_2"><circle class="st2" cx="128" cy="128" r="120"/></g><g id="Layer_1"><g><g><g><path class="st4" d="M128.000046,201.701736h-0.000099C100.385742,201.701736,78,179.315994,78,151.701782v-30.65416      c0-7.010162,5.682861-12.693024,12.693016-12.693024h74.61396c7.010162,0,12.693024,5.682861,12.693024,12.693024v30.65416      C178,179.315994,155.614258,201.701736,128.000046,201.701736z"/></g></g><g><path class="st0" d="M128.000046,191.701736h-0.000099C100.385742,191.701736,78,169.315994,78,141.701782v-23.381432     c0-7.010162,5.682861-12.693024,12.693016-12.693024h74.61396c7.010162,0,12.693024,5.682861,12.693024,12.693024v23.381432     C178,169.315994,155.614258,191.701736,128.000046,191.701736z"/></g><g><g><path class="st18" d="M161.179993,87.488457v18.139893h-14.649963V87.488457c0-4.950195-1.930054-9.610107-5.430054-13.110107      S132.950012,68.958427,128,68.958427c-10.219971,0-18.530029,8.309814-18.530029,18.530029v18.139893H94.820007V87.488457      c0-18.300049,14.880005-33.190189,33.179993-33.190189c8.869995,0,17.200012,3.460205,23.469971,9.730228      C157.72998,70.288261,161.179993,78.61834,161.179993,87.488457z"/></g></g><g><g><path class="st19" d="M121.284157,145.526123c-0.152809,0.572067-0.235092,1.171555-0.235092,1.790634v15.11261      c0,3.839859,3.111069,6.950928,6.950935,6.950928c3.839859,0,6.950943-3.111069,6.950943-6.950928v-15.11261      c0-0.61908-0.082291-1.218567-0.235092-1.790634c2.899475-2.084488,4.784149-5.489441,4.784149-9.333221      c0-6.35144-5.14856-11.499992-11.5-11.499992c-6.351448,0-11.5,5.148552-11.5,11.499992      C116.5,140.036682,118.384666,143.441635,121.284157,145.526123z"/></g></g><g><rect class="st19" height="7.570068" width="14.649963" x="94.820007" y="98.058281"/></g><g><rect class="st19" height="7.570068" width="14.649963" x="146.530029" y="98.058281"/></g></g></g></svg>